PathFileType	4	(X/Y/Z)	 0.16m3min.trc
DataRate	CameraRate	NumFrames	NumMarkers	Units	OrigDataRate	OrigDataStartFrame	OrigNumFrames
200	200	9	43	m	200	875	999
Frame#	Time	C7			LSH			RSH			MAN			RASI			LASI			HIPR			HIPL			RPSI			LPSI			COX			RTHI1			RTHI2			RTHI3			RTHI4			RLKN			RMKN			RSHA1			RSHA2			RSHA3			RSHA4			RLMAL			RMMAL			RHEEL			RMET5			RMET1			RTOE			LTHI1			LTHI2			LTHI3			LTHI4			LLKN			LMKN			LSHA1			LSHA2			LSHA3			LSHA4			LLMAL			LMMAL			LHEEL			LMET5			LMET1			LTOE			
		X1	Y1	Z1	X2	Y2	Z2	X3	Y3	Z3	X4	Y4	Z4	X5	Y5	Z5	X6	Y6	Z6	X7	Y7	Z7	X8	Y8	Z8	X9	Y9	Z9	X10	Y10	Z10	X11	Y11	Z11	X12	Y12	Z12	X13	Y13	Z13	X14	Y14	Z14	X15	Y15	Z15	X16	Y16	Z16	X17	Y17	Z17	X18	Y18	Z18	X19	Y19	Z19	X20	Y20	Z20	X21	Y21	Z21	X22	Y22	Z22	X23	Y23	Z23	X24	Y24	Z24	X25	Y25	Z25	X26	Y26	Z26	X27	Y27	Z27	X28	Y28	Z28	X29	Y29	Z29	X30	Y30	Z30	X31	Y31	Z31	X32	Y32	Z32	X33	Y33	Z33	X34	Y34	Z34	X35	Y35	Z35	X36	Y36	Z36	X37	Y37	Z37	X38	Y38	Z38	X39	Y39	Z39	X40	Y40	Z40	X41	Y41	Z41	X42	Y42	Z42	X43	Y43	Z43	
875	4.3750	-0.213457	1.396314	-0.580794	-0.115831	1.347044	-0.775319	-0.158538	1.339047	-0.373990	-0.088350	1.299181	-0.566712	-0.195764	0.865196	-0.436777	-0.158732	0.866720	-0.695364	-0.285007	0.931845	-0.412615	-0.238214	0.917798	-0.741657	-0.371633	0.930227	-0.537313	-0.353524	0.935977	-0.631408	-0.364184	0.934444	-0.585773	-0.258047	0.640792	-0.394314	-0.232917	0.586908	-0.393524	-0.178895	0.609949	-0.365792	-0.198008	0.668365	-0.364483	-0.125785	0.395157	-0.388926	-0.091833	0.389960	-0.497298	-0.204484	0.285633	-0.384345	-0.236133	0.255631	-0.392578	-0.166983	0.254954	-0.403023	-0.189633	0.222007	-0.414077	-0.372254	0.088420	-0.459837	-0.326760	0.085773	-0.537362	-0.417769	0.083714	-0.525316	-0.291725	0.034873	-0.399227	-0.221262	0.040427	-0.460412	-0.200765	0.034983	-0.449658	-0.180261	0.652529	-0.762140	-0.151901	0.597725	-0.758199	-0.092705	0.623160	-0.750098	-0.112627	0.679955	-0.753064	-0.074764	0.414911	-0.726169	-0.083914	0.389603	-0.613917	-0.159427	0.274984	-0.753657	-0.183877	0.242715	-0.751299	-0.143413	0.217381	-0.713089	-0.120427	0.252325	-0.723239	-0.321027	0.090937	-0.745531	-0.309689	0.085283	-0.657416	-0.392712	0.081099	-0.697236	-0.232238	0.029464	-0.775955	-0.180024	0.036428	-0.695685	-0.159987	0.032735	-0.704780	
876	4.3800	-0.213691	1.396221	-0.580653	-0.115635	1.347019	-0.775168	-0.158530	1.338421	-0.373821	-0.088383	1.299060	-0.566543	-0.195721	0.865641	-0.437178	-0.158364	0.867837	-0.694364	-0.284688	0.932169	-0.412693	-0.237389	0.918174	-0.741217	-0.371287	0.929968	-0.537260	-0.353013	0.935629	-0.631413	-0.363712	0.934192	-0.585801	-0.257659	0.640551	-0.394536	-0.232538	0.586675	-0.393784	-0.178495	0.609690	-0.366076	-0.197594	0.668102	-0.364723	-0.124920	0.394977	-0.389355	-0.091930	0.389855	-0.497967	-0.203445	0.285431	-0.384609	-0.235275	0.255475	-0.392542	-0.166137	0.254772	-0.403561	-0.188910	0.221888	-0.414575	-0.372163	0.088436	-0.459712	-0.326875	0.085630	-0.537366	-0.417853	0.083641	-0.525166	-0.291701	0.034883	-0.399178	-0.221284	0.040417	-0.460431	-0.200784	0.034976	-0.449664	-0.179472	0.652491	-0.762116	-0.151146	0.597665	-0.758229	-0.091953	0.623060	-0.749962	-0.111850	0.679865	-0.752853	-0.074020	0.414480	-0.726235	-0.083724	0.389090	-0.614129	-0.158757	0.274640	-0.753923	-0.183277	0.242442	-0.751614	-0.143084	0.217077	-0.713179	-0.119965	0.251944	-0.723262	-0.320835	0.090930	-0.746209	-0.309829	0.085437	-0.658051	-0.392703	0.081262	-0.698164	-0.232115	0.029365	-0.776322	-0.180129	0.036473	-0.695846	-0.160027	0.032710	-0.704855	
877	4.3850	-0.214072	1.396927	-0.580539	-0.115512	1.347803	-0.775031	-0.158609	1.338671	-0.373683	-0.088495	1.299857	-0.566383	-0.195513	0.866844	-0.437542	-0.157785	0.869555	-0.693394	-0.284344	0.932969	-0.412734	-0.236457	0.918844	-0.740858	-0.370712	0.930383	-0.537175	-0.352286	0.935983	-0.631346	-0.363016	0.934630	-0.585764	-0.257458	0.640919	-0.394700	-0.232467	0.587023	-0.393995	-0.178373	0.609873	-0.366287	-0.197319	0.668321	-0.364877	-0.124824	0.395096	-0.389736	-0.092604	0.390051	-0.498558	-0.203019	0.285386	-0.384873	-0.234886	0.255447	-0.392713	-0.165802	0.254810	-0.404079	-0.188620	0.221946	-0.415080	-0.372149	0.088325	-0.459776	-0.326984	0.085409	-0.537491	-0.417920	0.083448	-0.525225	-0.291716	0.034887	-0.399184	-0.221308	0.040408	-0.460463	-0.200813	0.034972	-0.449665	-0.178833	0.653113	-0.762156	-0.150672	0.598197	-0.758362	-0.091415	0.623409	-0.749970	-0.111159	0.680270	-0.752747	-0.073967	0.414450	-0.726537	-0.084196	0.388869	-0.614543	-0.158565	0.274450	-0.754267	-0.183079	0.242257	-0.751961	-0.143065	0.217014	-0.713301	-0.119900	0.251844	-0.723381	-0.320757	0.090880	-0.746768	-0.309972	0.085586	-0.658582	-0.392712	0.081397	-0.698873	-0.232039	0.029264	-0.776629	-0.180228	0.036511	-0.695987	-0.160072	0.032688	-0.704928	
878	4.3900	-0.214589	1.398390	-0.580456	-0.115506	1.349409	-0.774922	-0.158839	1.339830	-0.373559	-0.088687	1.301570	-0.566235	-0.195102	0.868713	-0.437748	-0.156934	0.871737	-0.692569	-0.283981	0.934254	-0.412709	-0.235408	0.919877	-0.740609	-0.369927	0.931483	-0.537073	-0.351359	0.937037	-0.631220	-0.362108	0.935761	-0.585679	-0.257429	0.641900	-0.394809	-0.232664	0.587935	-0.394141	-0.178496	0.610535	-0.366414	-0.197185	0.669043	-0.364953	-0.125491	0.395519	-0.390058	-0.093764	0.390534	-0.499024	-0.203280	0.285515	-0.385150	-0.235074	0.255534	-0.392908	-0.166009	0.255068	-0.404523	-0.188759	0.222165	-0.415528	-0.372187	0.088128	-0.459984	-0.327084	0.085180	-0.537716	-0.417973	0.083173	-0.525473	-0.291760	0.034889	-0.399244	-0.221328	0.040399	-0.460503	-0.200847	0.034971	-0.449663	-0.178355	0.654384	-0.762247	-0.150463	0.599325	-0.758582	-0.091091	0.624227	-0.750114	-0.110568	0.681192	-0.752746	-0.074605	0.414862	-0.727055	-0.085208	0.389031	-0.615126	-0.158861	0.274509	-0.754651	-0.183310	0.242271	-0.752330	-0.143326	0.217262	-0.713468	-0.120216	0.252095	-0.723606	-0.320782	0.090852	-0.747148	-0.310070	0.085757	-0.658954	-0.392714	0.081561	-0.699303	-0.232016	0.029175	-0.776837	-0.180303	0.036528	-0.696095	-0.160112	0.032672	-0.704995	
879	4.3950	-0.215257	1.400581	-0.580419	-0.115646	1.351836	-0.774833	-0.159254	1.341898	-0.373458	-0.088964	1.304191	-0.566103	-0.194467	0.871150	-0.437720	-0.155794	0.874295	-0.691951	-0.283557	0.936078	-0.412601	-0.234220	0.921371	-0.740479	-0.368944	0.933255	-0.536952	-0.350237	0.938804	-0.631049	-0.361007	0.937569	-0.585565	-0.257555	0.643497	-0.394874	-0.233094	0.589420	-0.394223	-0.178835	0.611701	-0.366465	-0.197177	0.670290	-0.364961	-0.126901	0.396269	-0.390321	-0.095343	0.391339	-0.499349	-0.204176	0.285835	-0.385477	-0.235847	0.255801	-0.393171	-0.166766	0.255580	-0.404838	-0.189338	0.222582	-0.415867	-0.372265	0.087915	-0.460257	-0.327159	0.085003	-0.537968	-0.417997	0.082889	-0.525836	-0.291822	0.034888	-0.399334	-0.221343	0.040392	-0.460544	-0.200881	0.034973	-0.449656	-0.178037	0.656303	-0.762377	-0.150492	0.601067	-0.758873	-0.090959	0.625563	-0.750370	-0.110089	0.682655	-0.752841	-0.075891	0.415751	-0.727755	-0.086648	0.389652	-0.615836	-0.159619	0.274936	-0.755059	-0.183939	0.242594	-0.752681	-0.143828	0.217901	-0.713715	-0.120873	0.252779	-0.723957	-0.320884	0.090920	-0.747326	-0.310078	0.086032	-0.659150	-0.392673	0.081824	-0.699426	-0.232045	0.029106	-0.776924	-0.180343	0.036521	-0.696166	-0.160141	0.032667	-0.705051	
880	4.4000	-0.216083	1.403492	-0.580435	-0.115960	1.355078	-0.774772	-0.159891	1.344880	-0.373380	-0.089330	1.307689	-0.565986	-0.193598	0.874093	-0.437451	-0.154371	0.877199	-0.691521	-0.283016	0.938524	-0.412423	-0.232878	0.923440	-0.740435	-0.367774	0.935687	-0.536797	-0.348926	0.941293	-0.630878	-0.359724	0.940034	-0.585428	-0.257809	0.645707	-0.394897	-0.233714	0.591495	-0.394253	-0.179353	0.613393	-0.366442	-0.197267	0.672081	-0.364917	-0.128986	0.397383	-0.390524	-0.097285	0.392484	-0.499529	-0.205711	0.286465	-0.385820	-0.237183	0.256312	-0.393474	-0.168047	0.256395	-0.404992	-0.190333	0.223236	-0.416047	-0.372429	0.087753	-0.460542	-0.327209	0.084958	-0.538194	-0.417997	0.082687	-0.526239	-0.291891	0.034885	-0.399444	-0.221349	0.040386	-0.460577	-0.200912	0.034976	-0.449644	-0.177863	0.658868	-0.762535	-0.150728	0.603424	-0.759211	-0.091007	0.627446	-0.750704	-0.109717	0.684685	-0.753006	-0.077750	0.417144	-0.728594	-0.088397	0.390852	-0.616634	-0.160790	0.275839	-0.755487	-0.184917	0.243350	-0.753029	-0.144531	0.219003	-0.714086	-0.121820	0.253982	-0.724467	-0.321023	0.091159	-0.747325	-0.309984	0.086476	-0.659189	-0.392564	0.082251	-0.699277	-0.232113	0.029059	-0.776889	-0.180343	0.036495	-0.696203	-0.160152	0.032672	-0.705092	
881	4.4050	-0.217055	1.407071	-0.580500	-0.116460	1.359110	-0.774736	-0.160764	1.348765	-0.373322	-0.089783	1.312025	-0.565885	-0.192502	0.877508	-0.436988	-0.152690	0.880455	-0.691220	-0.282287	0.941637	-0.412194	-0.231357	0.926186	-0.740415	-0.366430	0.938775	-0.536591	-0.347444	0.944475	-0.630710	-0.358276	0.943135	-0.585267	-0.258171	0.648552	-0.394882	-0.234491	0.594152	-0.394222	-0.180009	0.615634	-0.366350	-0.197443	0.674443	-0.364837	-0.131677	0.398896	-0.390676	-0.099544	0.394003	-0.499579	-0.207838	0.287448	-0.386069	-0.238977	0.257112	-0.393910	-0.169809	0.257569	-0.404976	-0.191693	0.224153	-0.416076	-0.372668	0.087656	-0.460792	-0.327248	0.085102	-0.538340	-0.417970	0.082616	-0.526569	-0.291956	0.034874	-0.399539	-0.221348	0.040384	-0.460590	-0.200937	0.034980	-0.449625	-0.177813	0.662079	-0.762711	-0.151134	0.606410	-0.759578	-0.091204	0.629901	-0.751081	-0.109439	0.687303	-0.753209	-0.080083	0.419073	-0.729525	-0.090377	0.392684	-0.617477	-0.162316	0.277307	-0.755940	-0.186210	0.244643	-0.753420	-0.145399	0.220610	-0.714629	-0.123011	0.255751	-0.725149	-0.321162	0.091638	-0.747196	-0.309774	0.087151	-0.659121	-0.392364	0.082914	-0.698944	-0.232206	0.029035	-0.776753	-0.180302	0.036454	-0.696208	-0.160146	0.032684	-0.705118	
882	4.4100	-0.218158	1.411283	-0.580622	-0.117143	1.363910	-0.774724	-0.161882	1.353523	-0.373284	-0.090331	1.317140	-0.565798	-0.191204	0.881398	-0.436428	-0.150805	0.884123	-0.690952	-0.281287	0.945438	-0.411932	-0.229632	0.929697	-0.740337	-0.364947	0.942518	-0.536340	-0.345804	0.948316	-0.630548	-0.356681	0.946851	-0.585092	-0.258619	0.652005	-0.394833	-0.235398	0.597382	-0.394145	-0.180771	0.618426	-0.366219	-0.197686	0.677386	-0.364733	-0.134888	0.400881	-0.390779	-0.102101	0.395931	-0.499518	-0.210423	0.288807	-0.386272	-0.241213	0.258233	-0.394254	-0.171961	0.259133	-0.404789	-0.193346	0.225398	-0.415937	-0.372941	0.087728	-0.460930	-0.327287	0.085495	-0.538363	-0.417922	0.082756	-0.526770	-0.292010	0.034859	-0.399610	-0.221344	0.040382	-0.460576	-0.200956	0.034984	-0.449596	-0.177854	0.665927	-0.762900	-0.151671	0.610016	-0.759958	-0.091520	0.632928	-0.751475	-0.109238	0.690497	-0.753420	-0.082768	0.421573	-0.730503	-0.092528	0.395195	-0.618341	-0.164137	0.279370	-0.756430	-0.187765	0.246528	-0.753886	-0.146406	0.222755	-0.715359	-0.124409	0.258107	-0.726001	-0.321259	0.092407	-0.747015	-0.309450	0.088136	-0.659027	-0.392048	0.083874	-0.698545	-0.232301	0.029036	-0.776542	-0.180227	0.036401	-0.696189	-0.160127	0.032705	-0.705129	
883	4.4150	-0.219388	1.416103	-0.580787	-0.117993	1.369430	-0.774728	-0.163231	1.359110	-0.373264	-0.090969	1.322995	-0.565725	-0.189726	0.885757	-0.435860	-0.148774	0.888280	-0.690632	-0.279949	0.949926	-0.411659	-0.227664	0.934046	-0.740131	-0.363322	0.946869	-0.536027	-0.344024	0.952788	-0.630377	-0.354968	0.951153	-0.584874	-0.259130	0.656070	-0.394756	-0.236411	0.601210	-0.394027	-0.181619	0.621763	-0.366058	-0.197972	0.680896	-0.364586	-0.138514	0.403385	-0.390845	-0.104949	0.398312	-0.499378	-0.213343	0.290609	-0.386362	-0.243740	0.259785	-0.394642	-0.174428	0.261174	-0.404451	-0.195280	0.227085	-0.415646	-0.373228	0.088027	-0.460932	-0.327325	0.086171	-0.538227	-0.417845	0.083171	-0.526787	-0.292047	0.034841	-0.399645	-0.221337	0.040384	-0.460529	-0.200967	0.034989	-0.449557	-0.177950	0.670386	-0.763097	-0.152298	0.614225	-0.760339	-0.091916	0.636529	-0.751856	-0.109085	0.694264	-0.753622	-0.085682	0.424688	-0.731488	-0.094834	0.398346	-0.619209	-0.166190	0.282019	-0.756971	-0.189514	0.248977	-0.754410	-0.147529	0.225436	-0.716269	-0.125975	0.261037	-0.727014	-0.321278	0.093498	-0.746871	-0.309045	0.089484	-0.658985	-0.391604	0.085161	-0.698180	-0.232379	0.029063	-0.776287	-0.180126	0.036343	-0.696157	-0.160099	0.032724	-0.705120	
